<?xml version="1.0" standalone="no"?>
<!DOCTYPE svg PUBLIC "-//W3C//DTD SVG 20010904//EN"
 "http://www.w3.org/TR/2001/REC-SVG-20010904/DTD/svg10.dtd">
<svg version="1.0" xmlns="http://www.w3.org/2000/svg"
 width="512.000000pt" height="512.000000pt" viewBox="0 0 512.000000 512.000000"
 preserveAspectRatio="xMidYMid meet">

<g transform="translate(0.000000,512.000000) scale(0.100000,-0.100000)"
fill="#000000" stroke="none">
<path d="M3689 4034 c-85 -26 -118 -72 -185 -254 l-59 -160 -1324 0 c-963 0
-1334 -3 -1362 -11 -91 -28 -153 -114 -153 -214 0 -53 28 -135 242 -724 133
-365 251 -679 263 -697 11 -19 42 -47 67 -62 l47 -27 979 -3 978 -2 53 24 c30
14 64 39 80 60 19 25 114 275 292 764 145 400 275 757 290 795 l26 67 217 0
c216 0 216 0 271 28 181 91 159 360 -34 417 -71 21 -619 21 -688 -1z m704 -40
c71 -36 107 -94 107 -174 0 -78 -35 -137 -102 -171 -33 -17 -61 -19 -256 -19
-195 0 -222 -2 -239 -17 -13 -11 -126 -310 -303 -798 -155 -429 -293 -796
-305 -816 -14 -21 -42 -46 -68 -58 l-44 -21 -974 2 c-922 3 -976 4 -1011 21
-20 10 -44 30 -53 43 -9 14 -127 327 -262 697 -231 634 -245 675 -241 729 5
63 37 115 92 149 30 18 69 19 1363 19 755 0 1342 4 1355 9 19 7 33 38 77 161
62 174 81 206 136 237 39 22 46 23 368 23 283 0 332 -2 360 -16z"/>
<path d="M1140 3180 c-20 -20 -20 -20 0 -72 10 -29 78 -215 149 -413 89 -244
137 -366 152 -377 20 -17 72 -18 779 -18 707 0 759 1 778 18 12 10 76 173 166
423 80 224 146 411 146 417 0 6 -10 18 -22 26 -20 14 -139 16 -1075 16 -1038
0 -1053 0 -1073 -20z m2125 -47 c-3 -15 -68 -198 -144 -408 l-138 -380 -764
-2 -764 -3 -99 273 c-55 149 -121 334 -147 410 l-49 137 1056 0 1056 0 -7 -27z"/>
<path d="M1119 1717 c-61 -17 -131 -59 -165 -99 -84 -100 -105 -249 -51 -360
35 -72 110 -140 185 -168 45 -17 72 -21 127 -18 129 8 229 76 281 191 54 119
33 259 -55 360 -70 79 -219 123 -322 94z m209 -58 c65 -32 99 -66 135 -133 31
-59 31 -193 0 -252 -36 -67 -70 -101 -135 -133 -84 -43 -167 -43 -253 -2 -68
32 -103 66 -137 131 -19 37 -23 60 -23 130 0 70 4 93 23 130 34 65 69 99 137
131 86 41 169 41 253 -2z"/>
<path d="M3159 1717 c-61 -17 -131 -59 -165 -99 -83 -99 -104 -249 -51 -360
35 -72 110 -140 185 -168 139 -53 308 5 388 132 36 56 57 150 49 214 -8 69
-56 164 -103 205 -80 71 -208 103 -303 76z m206 -56 c64 -30 102 -67 138 -135
31 -59 31 -193 0 -252 -36 -67 -70 -101 -135 -133 -194 -97 -418 42 -418 259
0 49 7 79 26 120 34 73 67 107 139 141 84 40 166 40 250 0z"/>
</g>
</svg>
