<?xml version="1.0" standalone="no"?>
<!DOCTYPE svg PUBLIC "-//W3C//DTD SVG 20010904//EN"
 "http://www.w3.org/TR/2001/REC-SVG-20010904/DTD/svg10.dtd">
<svg version="1.0" xmlns="http://www.w3.org/2000/svg"
 width="60px" height="60px" viewBox="0 0 236.000000 236.000000"
 preserveAspectRatio="xMidYMid meet">

<g transform="translate(0.000000,236.000000) scale(0.100000,-0.100000)"
fill="#000000" stroke="none">
<path d="M1884 2016 c-73 -13 -138 -26 -147 -29 -8 -3 -45 -82 -83 -176 -41
-104 -74 -172 -83 -175 -9 -3 -248 -9 -531 -15 -777 -17 -731 -15 -746 -36 -8
-11 -12 -33 -9 -54 2 -20 11 -99 20 -176 27 -237 47 -379 56 -397 10 -18 6
-18 354 -43 121 -9 293 -23 381 -31 89 -8 168 -14 176 -14 22 0 211 -147 225
-175 9 -16 10 -32 4 -48 -9 -22 -16 -24 -108 -30 -54 -4 -312 -7 -574 -7 -500
0 -499 0 -499 -45 0 -33 20 -45 73 -45 l48 0 -20 -29 c-48 -67 -5 -161 73
-161 55 0 99 44 99 98 0 25 -7 50 -17 60 -9 10 -16 22 -16 25 0 4 197 7 437 7
l436 0 -24 -26 c-56 -60 -9 -164 74 -164 102 0 134 139 43 187 -18 10 -18 11
7 28 61 40 85 131 52 195 -9 17 -51 59 -95 96 -44 36 -80 72 -80 81 0 8 13 47
29 86 17 40 64 160 106 267 42 107 110 281 151 385 41 105 80 202 86 217 12
32 13 33 148 54 138 21 150 26 150 63 0 20 -7 34 -19 41 -24 12 -18 13 -177
-14z m-539 -551 l0 -90 -87 -3 -88 -3 0 90 0 90 43 4 c23 2 62 4 87 3 l45 -1
0 -90z m196 73 c-5 -13 -22 -54 -38 -93 l-28 -70 -50 0 -50 0 -3 79 c-2 44 -1
85 2 93 4 9 29 13 90 13 85 0 85 0 77 -22z m-406 -78 l0 -85 -87 -3 -88 -3 0
91 0 91 88 -3 87 -3 0 -85z m-630 -6 l0 -79 -59 -3 c-32 -2 -62 1 -67 5 -4 4
-11 40 -15 80 l-6 72 63 3 c35 2 69 3 74 3 6 -1 10 -36 10 -81z m213 4 l-3
-83 -87 -3 -88 -3 0 86 0 85 90 0 91 0 -3 -82z m202 -3 l0 -85 -84 0 c-67 0
-85 3 -90 16 -8 21 -8 139 1 147 3 4 44 7 90 7 l83 0 0 -85z m-410 -195 l0
-80 -54 0 c-62 0 -61 -1 -71 93 l-7 67 66 0 66 0 0 -80z m210 0 l0 -80 -90 0
-90 0 0 80 0 80 90 0 90 0 0 -80z m200 0 l0 -81 -87 3 -88 3 -3 78 -3 77 91 0
90 0 0 -80z m220 0 l0 -80 -90 0 -90 0 0 80 0 80 90 0 90 0 0 -80z m210 0 l0
-80 -90 0 -90 0 0 80 0 80 90 0 90 0 0 -80z m107 68 c-46 -118 -61 -148 -73
-148 -11 0 -14 18 -14 80 l0 80 46 0 c33 0 45 -4 41 -12z m-949 -232 c4 -69 1
-74 -49 -67 -42 6 -44 8 -52 49 -13 64 -6 74 50 70 l48 -3 3 -49z m190 48 c20
-6 22 -12 22 -70 l0 -64 -44 0 c-24 0 -64 3 -90 6 l-46 7 0 63 0 64 68 0 c37
0 77 -3 90 -6z m220 -76 l3 -76 -83 5 c-46 3 -86 11 -90 17 -12 17 -9 111 3
123 6 6 43 10 88 10 l76 -2 3 -77z m206 76 c13 -5 16 -22 16 -86 l0 -80 -84 3
c-46 2 -87 7 -91 10 -6 7 -9 75 -6 132 1 27 1 27 75 27 41 0 81 -3 90 -6z
m210 0 c23 -9 21 -82 -4 -139 -17 -41 -23 -46 -43 -41 -12 3 -43 6 -69 6 l-48
0 0 90 0 90 74 0 c41 0 81 -3 90 -6z m-790 -676 c33 -47 7 -98 -49 -98 -39 0
-55 16 -55 54 0 61 72 91 104 44z m985 -4 c26 -33 26 -49 1 -74 -39 -39 -110
-15 -110 38 0 61 72 84 109 36z"/>
<path d="M482 451 c-20 -12 -10 -46 14 -49 25 -4 40 24 23 44 -13 16 -19 17
-37 5z"/>
<path d="M1461 446 c-15 -18 -3 -46 20 -46 25 0 35 26 19 45 -15 19 -24 19
-39 1z"/>
</g>
</svg>
