<?xml version="1.0" standalone="no"?>
<!DOCTYPE svg PUBLIC "-//W3C//DTD SVG 20010904//EN"
 "http://www.w3.org/TR/2001/REC-SVG-20010904/DTD/svg10.dtd">
<svg version="1.0" xmlns="http://www.w3.org/2000/svg"
 width="25px" height="25px" viewBox="0 0 1439.000000 1681.000000"
 preserveAspectRatio="xMidYMid meet">

<g transform="translate(0.000000,1681.000000) scale(0.100000,-0.100000)"
fill="#000000" stroke="none">
<path d="M3400 15213 c-113 -17 -282 -58 -320 -78 -99 -51 -117 -182 -35 -254
52 -46 86 -48 227 -12 180 45 282 55 508 47 184 -6 197 -5 228 14 95 58 96
192 2 261 -14 10 -56 23 -95 29 -102 14 -404 11 -515 -7z"/>
<path d="M9766 15219 c-78 -11 -116 -35 -143 -89 -28 -55 -29 -82 -2 -136 31
-65 75 -88 158 -83 36 2 149 4 251 3 191 -1 202 -2 476 -66 46 -10 55 -9 95
10 60 30 82 64 87 132 4 64 -18 108 -68 139 -38 22 -211 66 -345 86 -109 16
-408 19 -509 4z"/>
<path d="M4610 14933 c-67 -25 -117 -107 -105 -172 10 -55 27 -74 133 -153
132 -99 260 -229 371 -376 100 -134 135 -162 196 -162 89 0 155 66 155 155 0
48 -5 59 -57 131 -148 205 -284 350 -444 474 -128 99 -190 125 -249 103z"/>
<path d="M8954 14916 c-74 -38 -249 -182 -349 -288 -89 -95 -239 -287 -269
-345 -21 -42 -20 -78 4 -127 27 -55 63 -79 125 -84 77 -6 103 12 201 143 138
185 272 317 436 431 101 70 104 195 7 266 -43 32 -96 33 -155 4z"/>
<path d="M2403 14744 c-18 -9 -72 -57 -120 -108 -153 -158 -271 -328 -367
-526 -40 -83 -51 -115 -50 -153 1 -82 69 -147 154 -147 71 0 107 29 155 125
113 226 194 345 335 490 101 104 112 121 112 181 0 110 -121 186 -219 138z"/>
<path d="M11144 14741 c-64 -39 -94 -104 -79 -172 5 -21 38 -65 101 -131 153
-162 247 -297 330 -474 59 -127 106 -163 194 -151 77 10 130 74 130 155 0 45
-75 206 -160 343 -99 160 -277 369 -359 421 -53 33 -111 37 -157 9z"/>
<path d="M9895 14339 c-234 -25 -473 -145 -642 -323 -49 -52 -510 -667 -1242
-1659 -640 -867 -1167 -1575 -1170 -1573 -4 3 -287 385 -631 850 l-625 846 -3
-1780 c-1 -979 -1 -2580 0 -3559 l3 -1779 620 840 c341 462 625 844 631 849 8
7 361 -464 1180 -1573 643 -870 1195 -1610 1227 -1644 284 -306 732 -415 1120
-274 380 139 656 489 718 910 16 113 6 331 -20 437 -28 111 -72 222 -124 313
-23 41 -642 886 -1375 1878 -733 992 -1335 1809 -1338 1816 -3 7 590 818 1317
1802 728 984 1346 1826 1375 1872 108 171 163 350 171 563 9 219 -25 386 -117
575 -166 342 -487 572 -855 614 -100 11 -106 11 -220 -1z"/>
<path d="M5645 13740 c-48 -10 -82 -38 -105 -84 -24 -50 -25 -75 -6 -120 14
-33 445 -625 495 -679 14 -16 39 -36 55 -44 39 -20 114 -13 153 15 62 44 81
137 42 202 -48 78 -493 672 -515 687 -32 21 -83 31 -119 23z"/>
<path d="M7929 13717 c-40 -27 -524 -675 -539 -723 -31 -94 48 -194 152 -194
64 0 96 26 190 152 434 585 422 566 426 627 2 43 -1 63 -17 89 -46 72 -144 95
-212 49z"/>
<path d="M1805 13336 c-67 -30 -95 -84 -95 -181 0 -228 78 -581 171 -781 53
-112 175 -137 258 -52 54 56 54 110 -2 253 -66 169 -102 340 -113 548 -8 128
-19 158 -75 200 -34 25 -105 31 -144 13z"/>
<path d="M11750 13331 c-67 -36 -87 -90 -89 -248 -2 -134 -58 -383 -123 -543
-24 -60 -29 -85 -25 -129 3 -48 9 -59 44 -91 55 -52 108 -61 171 -28 56 29 88
85 145 258 67 201 120 548 103 665 -17 107 -132 167 -226 116z"/>
<path d="M6540 12448 c-48 -33 -72 -70 -77 -119 -5 -55 0 -66 154 -273 81
-110 133 -171 155 -182 47 -24 112 -21 154 8 43 29 281 351 294 399 26 92 -51
189 -150 189 -62 0 -98 -25 -164 -114 -31 -42 -59 -76 -64 -76 -4 0 -31 35
-61 76 -30 42 -69 85 -85 95 -44 27 -114 25 -156 -3z"/>
<path d="M11187 11916 c-21 -8 -47 -22 -58 -32 -18 -16 -194 -252 -436 -582
-79 -108 -83 -116 -83 -166 0 -122 133 -199 231 -133 42 28 525 679 540 727
16 54 -2 110 -51 154 -22 20 -49 36 -59 36 -11 0 -25 2 -33 5 -7 2 -30 -2 -51
-9z"/>
<path d="M2384 11901 c-70 -43 -98 -113 -72 -181 19 -46 491 -688 527 -715 38
-29 127 -32 169 -6 79 50 95 145 39 227 -111 165 -486 660 -512 675 -39 25
-111 25 -151 0z"/>
<path d="M10246 10645 c-22 -7 -49 -24 -62 -37 -32 -33 -481 -643 -499 -678
-35 -68 -7 -158 61 -197 68 -39 140 -27 195 34 50 55 482 647 495 679 18 44
17 71 -5 120 -32 70 -114 105 -185 79z"/>
<path d="M3320 10631 c-63 -33 -96 -129 -67 -192 7 -15 124 -177 260 -362 262
-354 274 -367 352 -367 105 0 180 103 147 199 -6 17 -124 183 -261 370 -267
360 -277 371 -358 371 -21 0 -54 -8 -73 -19z"/>
<path d="M4262 9363 c-60 -29 -95 -109 -78 -176 3 -14 44 -77 91 -140 47 -63
85 -120 85 -127 0 -6 -20 -37 -44 -68 -103 -135 -136 -192 -136 -234 0 -119
136 -199 231 -135 45 30 286 351 299 400 8 26 8 48 0 75 -14 53 -261 382 -302
404 -41 22 -103 23 -146 1z"/>
<path d="M9275 9362 c-28 -18 -259 -319 -290 -379 -19 -36 -19 -86 0 -124 9
-16 72 -105 141 -198 132 -179 157 -201 229 -201 94 0 171 96 150 188 -3 16
-46 85 -96 152 l-90 121 91 122 c52 72 93 136 96 155 9 48 -10 102 -51 142
-30 29 -43 34 -92 37 -44 3 -65 0 -88 -15z"/>
<path d="M9777 8126 c-71 -26 -107 -76 -107 -148 0 -24 8 -56 19 -73 43 -71
476 -652 504 -677 80 -72 203 -37 243 68 14 37 15 51 5 84 -14 48 -499 707
-538 731 -41 25 -83 30 -126 15z"/>
<path d="M3788 8115 c-24 -13 -506 -653 -538 -714 -17 -33 -8 -112 18 -148 42
-59 129 -79 197 -47 24 11 96 101 281 351 137 185 254 347 261 362 29 63 -4
159 -67 192 -41 23 -114 24 -152 4z"/>
<path d="M10716 6860 c-73 -22 -127 -115 -107 -185 10 -39 501 -708 535 -730
117 -77 278 43 233 172 -13 39 -441 627 -506 696 -19 20 -51 42 -71 47 -40 11
-45 11 -84 0z"/>
<path d="M2843 6838 c-48 -34 -531 -694 -539 -736 -9 -45 10 -103 43 -137 34
-33 63 -45 110 -45 76 0 89 13 353 371 138 186 255 350 260 364 25 65 0 141
-59 181 -48 32 -123 33 -168 2z"/>
<path d="M6767 5964 c-39 -21 -295 -367 -303 -409 -17 -94 59 -185 156 -185
56 0 102 33 164 119 l58 81 63 -83 c66 -88 107 -117 165 -117 101 0 179 104
147 197 -18 54 -262 380 -298 398 -36 19 -116 19 -152 -1z"/>
<path d="M1970 5559 c-50 -21 -80 -62 -120 -166 -86 -222 -132 -451 -134 -665
-1 -149 4 -165 68 -212 38 -29 124 -29 163 0 58 43 69 72 77 204 12 216 51
395 127 588 16 40 29 90 29 111 0 42 -29 92 -71 124 -31 23 -103 31 -139 16z"/>
<path d="M11594 5556 c-39 -17 -71 -58 -84 -107 -9 -31 -7 -48 11 -96 88 -240
139 -457 139 -592 0 -31 5 -85 10 -121 8 -57 14 -69 48 -101 54 -51 106 -59
170 -27 37 18 52 34 71 72 l25 49 -12 151 c-7 83 -23 205 -37 272 -46 224
-131 447 -187 488 -34 24 -113 31 -154 12z"/>
<path d="M6105 5039 c-16 -5 -40 -17 -52 -27 -41 -33 -512 -682 -524 -722 -23
-76 37 -171 116 -186 48 -9 95 2 127 29 25 20 467 612 509 681 69 113 -49 265
-176 225z"/>
<path d="M7463 5020 c-54 -33 -85 -96 -75 -159 6 -42 492 -705 542 -738 63
-43 163 -23 205 40 26 41 36 87 25 126 -13 48 -495 698 -539 728 -43 29 -113
31 -158 3z"/>
<path d="M11629 4030 c-58 -17 -81 -43 -134 -154 -87 -182 -187 -324 -330
-473 -99 -101 -116 -138 -96 -205 25 -83 107 -131 188 -109 73 20 250 210 386
416 91 138 177 320 177 376 0 60 -31 107 -90 137 -47 23 -60 25 -101 12z"/>
<path d="M1940 4007 c-46 -30 -73 -80 -73 -132 0 -86 171 -388 325 -570 150
-179 227 -235 301 -221 86 16 145 97 132 178 -6 34 -24 59 -109 149 -131 137
-212 252 -306 431 -56 107 -83 148 -109 165 -46 31 -116 31 -161 0z"/>
<path d="M5166 3770 c-40 -13 -67 -40 -162 -167 -102 -135 -233 -269 -357
-362 -110 -82 -122 -95 -135 -143 -29 -108 81 -219 187 -188 102 29 415 318
566 523 48 65 91 133 96 152 20 73 -35 163 -112 185 -39 11 -44 11 -83 0z"/>
<path d="M8404 3751 c-70 -42 -98 -118 -70 -185 25 -60 195 -274 306 -386 119
-120 291 -254 348 -270 52 -16 109 0 152 44 27 29 34 45 38 89 6 77 -12 105
-126 189 -130 97 -269 237 -377 382 -48 65 -102 127 -119 137 -40 25 -112 25
-152 0z"/>
<path d="M3084 2986 c-65 -28 -106 -115 -84 -180 22 -66 54 -94 143 -120 198
-60 372 -81 607 -73 198 6 241 16 286 61 78 78 58 197 -43 246 -40 20 -48 21
-145 9 -181 -21 -415 -1 -605 51 -85 23 -116 24 -159 6z"/>
<path d="M10460 2984 c-160 -50 -447 -76 -615 -55 -108 13 -148 5 -193 -42
-63 -65 -61 -159 4 -216 49 -44 90 -52 294 -58 210 -6 343 8 536 57 131 33
169 55 196 118 22 50 19 89 -12 140 -41 67 -114 87 -210 56z"/>
</g>
</svg>
