<?xml version="1.0" standalone="no"?>
<!DOCTYPE svg PUBLIC "-//W3C//DTD SVG 20010904//EN"
 "http://www.w3.org/TR/2001/REC-SVG-20010904/DTD/svg10.dtd">
<svg version="1.0" xmlns="http://www.w3.org/2000/svg"
 width="10px" height="10px" viewBox="0 0 360.000000 360.000000"
 preserveAspectRatio="xMidYMid meet">

<g transform="translate(0.000000,360.000000) scale(0.100000,-0.100000)"
fill="#000000" stroke="none">
<path d="M1560 1870 c-12 -16 -18 -30 -13 -30 5 0 17 14 26 30 10 17 16 30 13
30 -2 0 -14 -13 -26 -30z"/>
<path d="M2010 1895 c1 -12 39 -59 44 -54 2 2 -7 18 -20 34 -13 17 -24 26 -24
20z"/>
<path d="M1508 1798 c-52 -71 -69 -98 -60 -98 6 0 19 15 30 33 11 17 30 47 41
65 11 17 19 32 17 32 -2 0 -15 -15 -28 -32z"/>
<path d="M2077 1803 c10 -16 30 -46 46 -68 61 -88 77 -116 72 -126 -4 -5 -1
-8 5 -7 7 2 17 -6 23 -17 7 -11 16 -23 20 -26 5 -3 10 -15 11 -25 2 -10 8 -18
14 -17 5 1 9 -9 8 -22 0 -14 -3 -25 -6 -25 -3 0 -11 -10 -19 -22 -13 -21 -13
-22 2 -10 12 10 21 11 36 2 21 -11 28 -21 14 -19 -5 1 -20 1 -35 0 -24 -1 -28
-5 -28 -29 0 -17 -9 -34 -25 -46 -13 -10 -22 -23 -18 -29 4 -6 0 -8 -10 -4
-10 4 -21 -1 -27 -11 -9 -14 -10 -13 -4 7 4 15 3 21 -5 17 -5 -4 -19 1 -31 11
-11 10 -29 26 -39 35 -11 9 -23 13 -27 10 -4 -4 -4 1 -1 11 4 11 3 16 -4 12
-11 -7 -31 13 -94 95 -22 29 -58 71 -80 94 -22 23 -31 30 -19 16 11 -14 52
-65 90 -115 38 -49 76 -97 84 -105 8 -9 32 -38 52 -64 124 -161 330 -369 489
-492 104 -82 168 -119 293 -173 61 -26 64 -26 39 2 -25 27 -176 234 -337 462
-65 94 -131 186 -145 206 -14 20 -41 58 -60 85 -145 206 -294 414 -297 414 -3
0 3 -12 13 -27z m243 -353 c8 -12 23 -33 34 -47 10 -13 16 -26 13 -29 -2 -3
-14 11 -26 30 -12 19 -30 38 -40 41 -12 3 -18 15 -18 32 0 29 -1 29 37 -27z
m-180 -157 c12 -21 18 -33 12 -28 -5 6 -29 32 -53 59 -39 44 -40 47 -13 28 18
-12 42 -39 54 -59z m280 7 c6 -11 8 -20 6 -20 -3 0 -10 9 -16 20 -6 11 -8 20
-6 20 3 0 10 -9 16 -20z m-220 -65 c0 -8 -2 -15 -4 -15 -2 0 -6 7 -10 15 -3 8
-1 15 4 15 6 0 10 -7 10 -15z m31 -52 c13 -16 12 -17 -3 -4 -17 13 -22 21 -14
21 2 0 10 -8 17 -17z"/>
<path d="M1353 1578 c-44 -62 -95 -135 -114 -162 -19 -27 -46 -65 -60 -85 -14
-20 -80 -112 -145 -206 -161 -228 -312 -435 -337 -462 -11 -13 -18 -23 -15
-23 7 0 93 37 148 64 199 98 490 365 723 666 7 8 32 40 57 70 67 81 78 99 39
62 -19 -18 -39 -29 -43 -25 -4 4 -4 0 -1 -9 7 -18 -22 -51 -37 -42 -7 4 -8 2
-4 -5 8 -12 -18 -44 -28 -34 -3 4 -7 1 -7 -5 -1 -7 -2 -16 -3 -21 0 -6 -7 -16
-13 -22 -10 -10 -17 -9 -33 6 -11 10 -20 14 -20 9 0 -5 -7 0 -15 10 -12 16
-18 17 -27 8 -9 -9 -8 -12 8 -13 18 0 18 -1 -1 -9 -17 -7 -17 -9 -2 -9 9 -1
17 -7 17 -13 0 -10 2 -10 8 0 11 17 45 4 38 -15 -3 -8 -6 -17 -6 -19 0 -2 -4
-4 -10 -4 -5 0 -7 6 -4 14 4 10 -2 12 -20 9 -50 -10 -105 19 -58 30 14 3 13 6
-8 15 -14 6 -18 11 -10 12 13 0 13 1 0 10 -12 8 -11 10 6 10 12 0 25 7 28 16
10 26 7 28 -15 8 -16 -14 -23 -15 -26 -6 -3 6 -12 12 -20 12 -12 0 -13 3 -4
14 9 11 9 17 -1 27 -15 16 -23 63 -9 55 11 -7 36 22 28 31 -10 9 33 64 45 57
6 -4 8 -2 4 4 -3 6 3 27 15 46 39 67 12 36 -68 -76z m-12 -51 c-10 -9 -11 -8
-5 6 3 10 9 15 12 12 3 -3 0 -11 -7 -18z m-25 -42 c-3 -8 2 -22 11 -31 16 -16
15 -16 -6 -9 -16 5 -21 4 -17 -4 4 -6 4 -11 -1 -10 -27 5 -35 -2 -29 -28 3
-16 3 -22 0 -15 -5 10 -10 9 -25 -4 -29 -26 -23 -2 9 32 15 16 33 42 39 57 13
28 30 39 19 12z m-120 -178 c0 -13 -6 -24 -13 -24 -8 0 -8 7 0 24 13 29 15 29
13 0z m259 -26 c3 -5 2 -12 -3 -15 -5 -3 -9 1 -9 9 0 17 3 19 12 6z m-41 -46
c-4 -8 -8 -15 -10 -15 -2 0 -4 7 -4 15 0 8 4 15 10 15 5 0 7 -7 4 -15z"/>
<path d="M1779 1663 c-13 -16 -12 -17 4 -4 14 11 20 11 35 0 15 -13 16 -12 3
4 -7 9 -17 17 -21 17 -4 0 -14 -8 -21 -17z"/>
<path d="M1734 1608 c-37 -40 -58 -68 -52 -68 3 0 24 23 47 50 48 56 50 67 5
18z"/>
<path d="M1343 1494 c-3 -8 -1 -20 5 -26 7 -7 10 -2 9 16 -2 30 -5 32 -14 10z"/>
<path d="M2244 1484 c-1 -13 2 -21 7 -18 11 6 12 31 2 37 -5 3 -9 -6 -9 -19z"/>
<path d="M2156 1362 c-2 -4 -1 -14 4 -22 7 -11 12 -12 21 -3 6 6 8 16 5 22 -8
13 -23 14 -30 3z"/>
</g>
</svg>
