<?xml version="1.0" standalone="no"?>
<!DOCTYPE svg PUBLIC "-//W3C//DTD SVG 20010904//EN"
 "http://www.w3.org/TR/2001/REC-SVG-20010904/DTD/svg10.dtd">
<svg version="1.0" xmlns="http://www.w3.org/2000/svg"
 width="100px" height="100px" viewBox="0 0 1200.000000 1200.000000"
 preserveAspectRatio="xMidYMid meet">

<g transform="translate(0.000000,1200.000000) scale(0.100000,-0.100000)"
fill="#000000" stroke="none">
<path d="M5830 9854 c-831 -73 -1556 -378 -2157 -907 -678 -596 -1116 -1435
-1219 -2332 -90 -790 90 -1617 501 -2299 360 -598 897 -1092 1520 -1396 395
-194 806 -311 1265 -361 152 -17 555 -17 700 0 1030 117 1896 589 2521 1376
526 662 812 1524 785 2365 -36 1137 -567 2159 -1475 2838 -503 377 -1078 607
-1741 698 -110 15 -594 27 -700 18z m665 -99 c452 -54 830 -169 1238 -378 139
-71 158 -83 153 -101 -45 -163 -46 -330 -3 -473 18 -62 21 -83 11 -83 -23 0
-28 -23 -8 -37 18 -13 18 -15 2 -27 -12 -9 -14 -16 -5 -31 7 -14 7 -20 -1 -23
-16 -5 -15 -29 0 -34 10 -4 9 -8 -2 -20 -48 -50 -62 -78 -39 -78 5 0 8 -4 5
-8 -10 -17 16 -87 40 -110 14 -13 24 -34 23 -45 -3 -40 1 -47 22 -47 21 0 49
-22 49 -39 0 -5 10 -11 23 -13 15 -2 21 -9 19 -20 -2 -13 4 -18 21 -18 20 0
26 -6 31 -36 4 -19 15 -38 24 -41 9 -4 21 -12 25 -20 11 -18 36 -17 43 2 9 21
24 8 24 -21 0 -13 5 -24 10 -24 6 0 10 8 10 17 0 18 28 53 41 53 18 0 -25 -68
-52 -84 -16 -9 -29 -24 -29 -32 0 -17 21 -19 37 -3 17 17 34 1 27 -25 -6 -26
20 -43 41 -26 6 5 14 7 18 4 3 -3 17 2 31 11 29 19 35 12 11 -11 -20 -20 -20
-48 0 -40 12 4 13 2 2 -16 -9 -16 -9 -22 0 -25 9 -3 11 -21 6 -64 -5 -49 -3
-59 10 -59 8 0 18 6 20 13 7 16 7 -116 0 -225 -4 -73 -8 -88 -22 -88 -9 0 -31
-14 -50 -31 -26 -25 -31 -33 -20 -40 8 -5 20 -9 27 -9 13 0 15 -10 6 -34 -5
-12 -10 -13 -27 -3 -12 7 -24 15 -27 18 -3 3 -14 9 -25 13 -19 7 -19 8 4 27
26 21 44 109 22 109 -6 0 -11 -15 -11 -34 0 -58 -55 -98 -111 -81 -30 10 -23
25 42 91 l62 62 -31 16 c-17 9 -39 16 -48 16 -30 0 -83 -44 -95 -77 -12 -39
-2 -64 47 -110 31 -29 49 -73 23 -58 -6 4 -17 -1 -25 -11 -14 -17 -15 -17 -10
-2 3 10 1 20 -4 23 -6 4 -10 2 -10 -4 0 -6 -9 -15 -20 -21 -16 -9 -18 -8 -14
5 4 8 1 15 -6 15 -9 0 -6 7 6 21 18 20 18 21 -1 35 -18 13 -43 18 -75 15 -16
-2 -84 -70 -77 -77 2 -3 20 11 40 31 34 34 58 42 91 29 23 -9 19 -23 -5 -17
-15 4 -22 0 -26 -16 -3 -11 -9 -18 -14 -15 -5 3 -20 -5 -34 -18 -18 -17 -22
-29 -18 -48 6 -23 5 -24 -13 -10 -17 12 -17 12 -6 0 7 -8 18 -15 25 -15 13 -1
13 -9 2 -37 -6 -14 -2 -18 18 -18 57 0 71 -21 39 -56 -16 -17 -19 -36 -13 -93
1 -8 8 -11 21 -8 13 3 20 0 20 -9 0 -19 47 -29 65 -14 13 10 15 9 15 -9 0 -19
5 -22 28 -19 23 3 27 0 24 -20 -3 -21 -1 -22 17 -13 25 14 34 14 26 1 -11 -17
3 -42 17 -33 7 4 24 9 38 11 27 4 98 68 87 79 -4 3 -2 12 4 19 13 16 28 4 46
-37 9 -22 8 -27 -9 -38 -23 -14 -71 -118 -64 -137 3 -8 2 -14 -3 -14 -13 0
-52 -97 -45 -114 10 -27 -30 -63 -65 -58 -16 2 -46 -2 -67 -8 -36 -12 -39 -11
-53 11 -9 13 -26 33 -38 45 -22 20 -22 24 -12 100 18 128 -11 199 -102 249
-39 21 -68 29 -104 29 -127 0 -259 -127 -215 -208 6 -13 12 -48 13 -79 1 -31
5 -57 8 -57 4 0 9 -19 11 -43 3 -28 18 -62 42 -95 20 -28 36 -56 36 -62 0 -5
9 -19 21 -31 l21 -21 -21 -22 c-30 -32 -18 -47 87 -103 33 -17 33 -18 31 -83
-2 -36 0 -71 5 -78 4 -7 4 -25 0 -40 -4 -15 -8 -38 -10 -52 -2 -38 -23 -117
-39 -157 -8 -20 -15 -45 -15 -57 0 -11 -14 -56 -31 -99 l-31 -77 26 -40 c14
-22 26 -50 26 -62 0 -13 5 -30 10 -38 8 -13 11 -13 25 1 14 14 21 13 69 -10
l54 -26 8 -70 c5 -38 8 -95 9 -125 0 -49 3 -56 27 -68 16 -7 30 -23 33 -35 7
-28 -1 -212 -11 -252 -14 -58 4 -156 40 -213 30 -48 44 -58 59 -43 7 7 5 16
-8 31 -27 30 -12 34 18 6 15 -14 27 -34 27 -46 0 -12 7 -52 16 -91 13 -56 19
-69 35 -69 11 0 21 -6 23 -12 2 -7 12 -43 21 -80 13 -52 32 -88 84 -160 37
-51 82 -120 99 -153 33 -64 82 -179 82 -192 0 -5 -26 -14 -57 -22 -115 -26
-281 -119 -357 -199 l-29 -31 -106 6 c-85 4 -120 10 -176 33 -121 49 -191 63
-315 64 -79 1 -141 -5 -197 -18 -77 -18 -84 -18 -124 -2 -84 34 -171 47 -289
45 -244 -4 -263 1 -275 78 -5 33 -11 42 -32 48 -27 6 -63 -17 -63 -41 0 -7 -8
-10 -21 -7 -12 4 -25 0 -29 -8 -5 -7 -12 -10 -15 -7 -4 4 -3 13 1 20 5 7 7 21
6 30 -2 12 3 18 15 18 10 1 36 16 58 35 32 28 37 37 26 44 -12 8 -12 14 -1 40
7 18 21 36 31 42 11 6 19 21 19 36 0 20 -4 24 -20 20 -17 -4 -19 -1 -14 19 4
17 -1 30 -22 49 -15 14 -34 24 -43 23 -9 -2 -20 7 -26 19 -8 19 -15 22 -45 17
-31 -5 -37 -2 -52 23 -9 16 -16 37 -15 47 1 14 -6 20 -25 23 -21 3 -28 -1 -28
-12 0 -9 -4 -14 -9 -11 -12 8 -44 -31 -36 -43 9 -16 -6 -13 -25 4 -16 14 -18
13 -30 -14 -6 -16 -9 -35 -4 -42 4 -7 3 -10 -3 -6 -13 8 -24 -28 -12 -40 17
-18 -65 -11 -88 7 -20 15 -29 17 -54 8 -62 -22 -79 -97 -19 -84 32 6 38 -2 18
-22 -7 -7 -8 -12 -3 -12 4 0 0 -9 -10 -20 -10 -11 -15 -23 -12 -26 3 -4 2 -15
-4 -26 -7 -13 -7 -23 0 -32 7 -8 6 -20 -4 -39 -8 -15 -14 -46 -15 -70 -1 -92
0 -89 -29 -83 -14 3 -45 8 -68 11 -40 6 -61 25 -28 25 10 0 15 10 15 30 0 30
-22 42 -35 19 -4 -6 -13 -8 -21 -5 -8 3 -14 -1 -14 -8 0 -17 -42 -28 -75 -20
-18 4 -27 1 -31 -10 -9 -24 -27 -19 -21 5 4 15 0 23 -14 26 -10 3 -19 12 -19
19 0 17 -5 17 -31 3 -18 -9 -19 -7 -14 14 6 22 3 25 -27 30 -44 8 -127 0 -144
-14 -23 -19 -93 19 -115 63 -11 21 -23 38 -27 38 -18 -1 -32 -18 -27 -32 7
-17 -48 -66 -66 -61 -5 2 -9 -6 -9 -17 0 -13 -5 -18 -16 -13 -24 9 -62 -17
-69 -48 -10 -44 -41 -71 -114 -99 -38 -15 -100 -48 -138 -73 l-69 -46 -79 10
c-44 6 -101 8 -126 5 -36 -5 -58 -1 -104 19 -96 43 -170 56 -345 61 -157 5
-250 22 -250 45 0 10 92 77 136 100 40 20 48 13 33 -30 -6 -18 -8 -35 -5 -39
4 -3 9 4 13 16 3 13 13 22 25 22 27 0 75 36 83 61 6 17 13 20 34 16 36 -8 47
1 71 56 24 53 19 78 -10 52 -17 -16 -18 -16 -16 1 2 10 8 20 15 22 7 2 31 24
53 48 22 24 47 44 54 44 16 0 18 -33 4 -61 -9 -17 -7 -19 16 -19 26 0 26 -1
11 -18 -10 -10 -17 -21 -17 -25 0 -8 43 -3 58 7 7 4 19 5 27 2 8 -3 15 -1 15
5 0 6 5 7 10 4 6 -3 10 -2 10 4 0 6 7 8 16 4 10 -4 17 1 20 14 3 11 16 26 29
33 13 7 21 18 18 26 -3 8 1 14 11 14 17 0 19 8 16 52 -2 32 11 41 61 41 22 0
39 3 39 7 0 4 13 7 29 8 35 1 74 19 66 31 -3 5 2 22 10 37 19 36 19 44 0 44
-8 0 -15 -4 -15 -10 0 -5 -5 -10 -11 -10 -6 0 -9 9 -6 19 4 16 -1 21 -22 23
-21 2 -26 8 -26 31 -1 15 8 37 20 49 53 58 84 101 79 110 -3 5 -12 7 -20 4
-22 -8 -17 8 23 81 21 37 38 74 40 81 1 8 10 20 20 28 12 9 14 13 4 14 -31 0
13 30 48 31 23 1 28 3 14 6 -33 6 -28 23 5 23 16 0 32 3 36 8 4 4 15 7 24 8
10 1 24 2 32 3 9 0 24 16 34 35 14 27 26 35 53 38 19 2 36 1 39 -3 2 -4 16 -7
29 -6 23 2 55 42 55 68 0 16 -63 10 -82 -8 -14 -13 -18 -13 -18 -2 0 11 -2 11
-10 -1 -5 -8 -10 -10 -10 -4 0 7 15 23 33 36 29 23 34 24 47 10 14 -15 15 -15
18 0 2 10 9 15 17 12 9 -4 17 4 21 20 8 32 -21 70 -48 63 -11 -3 -18 0 -18 9
0 8 -3 13 -7 13 -29 -5 -36 2 -20 19 10 10 17 26 17 35 0 17 57 53 68 43 3 -3
0 -6 -6 -6 -7 0 -12 -7 -12 -15 0 -8 5 -15 11 -15 5 0 7 -5 4 -10 -3 -6 1 -13
9 -16 9 -3 13 -10 10 -15 -3 -5 -1 -9 5 -9 5 0 16 -12 23 -27 7 -15 22 -29 33
-31 11 -3 24 -11 28 -18 5 -8 12 -12 18 -9 5 4 9 2 9 -3 0 -14 36 -52 43 -46
3 4 13 -1 22 -10 39 -38 98 1 62 42 -8 9 -12 23 -10 30 3 6 1 12 -4 12 -5 0
-15 -6 -22 -12 -10 -11 -12 -9 -9 7 2 14 -3 21 -18 23 -16 2 -20 8 -17 23 3
10 10 19 17 19 25 1 39 17 28 36 -7 13 -7 25 0 38 6 12 7 21 0 25 -5 3 -12 23
-16 43 -4 21 -12 37 -19 35 -7 -1 -11 4 -9 12 2 9 -4 12 -17 8 -11 -3 -28 1
-37 8 -17 12 -16 13 2 22 10 6 38 13 61 16 32 4 51 14 77 42 31 32 34 41 31
82 -2 26 -9 49 -16 53 -6 4 -12 21 -13 38 -1 17 -9 38 -17 49 -9 10 -22 28
-28 40 -9 18 -19 21 -62 20 -27 0 -52 -5 -55 -9 -3 -5 -21 8 -40 27 -18 19
-36 35 -39 35 -12 0 -54 -56 -55 -72 0 -21 -20 -24 -20 -4 0 8 6 21 14 28 22
22 29 55 13 65 -7 4 -16 16 -20 26 -11 30 -49 37 -68 13 -16 -20 -18 -20 -36
-3 -11 9 -22 14 -26 11 -3 -4 -13 1 -22 9 -14 14 -13 17 7 31 19 14 20 16 4
22 -13 5 -14 9 -5 20 7 8 13 30 16 49 3 34 3 34 -32 28 -31 -5 -37 -3 -42 16
-3 12 -10 21 -17 20 -6 -1 -19 1 -29 6 -11 4 -23 3 -30 -4 -6 -6 -19 -11 -28
-11 -11 0 -24 -19 -39 -54 -12 -30 -29 -57 -37 -60 -10 -4 -13 -2 -10 7 7 18
-3 33 -29 41 -17 5 -23 2 -27 -15 -5 -17 -9 -20 -19 -11 -23 19 -55 -20 -38
-47 4 -8 -2 -22 -16 -36 -16 -16 -21 -30 -17 -45 4 -16 3 -21 -6 -16 -6 4 -8
12 -5 18 7 12 -45 8 -63 -5 -6 -5 -9 -15 -6 -23 3 -9 -2 -14 -17 -14 -18 0
-20 -4 -15 -22 5 -16 4 -20 -3 -13 -6 6 -12 17 -14 25 -5 22 -68 42 -87 27 -8
-7 -22 -11 -33 -9 -10 2 -18 0 -18 -5 1 -27 15 -53 32 -59 26 -8 17 -30 -10
-26 -13 2 -22 -2 -22 -10 -1 -7 -16 -20 -35 -29 -32 -15 -35 -15 -51 2 -17 19
-44 15 -44 -7 0 -8 -4 -14 -10 -14 -5 0 -11 -8 -11 -17 -1 -16 -2 -16 -6 0 -3
11 -11 16 -19 13 -23 -9 -68 12 -57 27 5 6 10 22 11 35 1 28 -23 29 -38 2 -6
-11 -16 -17 -22 -14 -7 5 -6 11 5 19 16 11 21 75 6 75 -4 0 -5 9 -2 20 7 27
-12 25 -32 -2 l-17 -23 6 30 c3 17 8 55 11 85 11 93 35 194 47 202 7 4 17 3
23 -1 10 -9 55 3 55 14 0 12 -29 35 -44 35 -19 0 -20 7 -4 64 11 43 14 45 46
44 19 -1 37 3 40 9 4 5 15 12 25 16 9 3 17 14 17 23 0 12 6 15 24 10 18 -4 28
0 40 19 9 13 16 31 16 40 0 8 9 15 20 15 11 0 20 4 20 10 0 5 11 20 25 34 23
23 24 27 10 52 -8 15 -11 32 -7 38 12 20 11 40 -4 51 -23 16 -2 60 35 73 31
11 42 31 19 33 -7 0 -3 4 10 10 18 7 22 14 17 30 -4 13 -2 25 5 29 16 10 15
66 0 86 -10 11 -9 15 4 20 33 12 17 34 -24 34 -31 0 -40 -4 -41 -17 0 -14 -2
-13 -9 5 -5 12 -16 22 -25 22 -8 0 -15 4 -15 9 0 6 10 8 23 5 24 -5 67 13 80
33 4 7 19 13 32 13 18 0 25 5 25 20 0 11 7 20 15 20 25 0 17 27 -11 34 -21 6
-24 9 -14 21 9 11 9 19 2 28 -5 6 -8 36 -6 66 2 30 -2 62 -8 75 -7 11 -11 29
-9 40 3 23 -15 36 -51 36 -25 0 -28 -4 -28 -31 0 -19 -4 -28 -11 -24 -15 10 0
87 20 102 14 11 14 14 1 23 -12 8 -9 10 12 10 20 0 32 8 42 28 8 15 24 35 35
44 27 23 30 87 4 89 -17 1 -17 2 0 6 9 2 17 11 17 19 0 8 7 14 16 14 9 0 25
10 35 21 15 17 22 19 33 10 10 -9 16 -8 26 4 7 8 18 15 25 15 17 0 27 57 15
80 -11 20 -4 30 22 30 20 0 24 24 8 64 -7 20 -6 27 7 35 10 5 18 22 19 38 1
15 3 29 3 30 1 2 24 -6 52 -17 39 -16 54 -18 65 -9 8 6 11 15 8 20 -3 5 4 9
14 9 11 0 22 7 26 15 7 18 56 20 56 2 0 -27 27 -49 64 -52 39 -4 73 15 62 34
-12 18 24 20 41 2 11 -12 28 -18 45 -16 15 2 44 -1 65 -5 32 -8 41 -6 60 12
21 20 26 49 10 64 -14 14 -7 22 14 17 14 -4 25 0 31 10 7 14 12 14 28 5 10 -7
22 -9 26 -5 8 8 9 50 1 98 -5 30 -1 40 27 71 38 41 49 65 36 73 -6 4 -10 14
-10 23 0 9 -11 28 -24 42 -14 14 -41 41 -60 62 -29 29 -36 44 -35 75 l1 38 9
-32 c11 -38 38 -55 81 -51 26 3 35 12 64 66 36 67 41 91 22 110 -9 9 -7 12 9
12 12 0 25 -4 28 -10 9 -15 25 -12 25 5 0 8 5 15 10 15 6 0 10 5 10 12 0 6 7
18 15 27 42 44 85 105 82 115 -2 6 -13 12 -26 14 -20 3 -18 7 24 54 26 29 58
72 72 97 15 25 28 48 30 50 2 3 53 -44 113 -104 61 -60 110 -105 110 -100 0 5
-48 58 -106 116 l-107 107 18 44 c93 230 77 486 -43 698 -20 36 -38 68 -40 72
-10 21 467 17 663 -7z m-1048 -1297 c-3 -8 -6 -5 -6 6 -1 11 2 17 5 13 3 -3 4
-12 1 -19z m-1283 -373 c3 -8 1 -15 -4 -15 -6 0 -10 7 -10 15 0 8 2 15 4 15 2
0 6 -7 10 -15z m-687 -37 c14 -18 23 -59 12 -52 -5 3 -9 14 -9 24 0 10 -8 24
-17 29 -10 6 -13 11 -7 11 6 0 16 -6 21 -12z m190 -68 c3 -11 8 -20 12 -20 4
0 16 -7 27 -15 18 -15 17 -16 -13 -10 -28 6 -34 3 -45 -19 -10 -23 -8 -29 11
-47 19 -18 33 -20 111 -18 49 2 92 0 95 -3 3 -3 1 -18 -5 -34 -9 -23 -8 -31 3
-39 11 -8 12 -16 6 -28 -11 -20 -31 -23 -23 -4 2 7 -2 21 -9 31 -12 16 -22 18
-70 12 -32 -4 -57 -12 -57 -18 0 -7 -4 -7 -13 1 -8 6 -17 8 -20 4 -4 -3 -7 0
-7 7 0 24 -32 50 -61 50 -15 0 -31 5 -34 10 -3 6 -1 10 4 10 6 0 11 15 11 33
1 74 63 152 77 97z m-116 -37 c11 3 19 4 19 3 0 -13 -53 -132 -69 -154 -11
-15 -23 -40 -26 -55 -7 -27 -25 -47 -25 -28 0 6 -7 11 -15 11 -8 0 -15 -9 -15
-20 0 -18 -2 -19 -20 -8 -11 7 -32 30 -47 51 -28 41 -50 46 -89 21 -19 -13
-24 -24 -22 -47 4 -42 -16 -45 -33 -5 -7 18 -16 35 -19 38 -3 3 -13 30 -21 61
l-15 56 70 -3 c39 -2 90 -6 114 -9 33 -5 42 -3 42 8 0 8 6 20 14 27 8 6 12 18
9 26 -4 10 0 12 11 8 14 -6 77 30 85 49 2 5 10 -1 18 -13 10 -14 22 -20 34
-17z m214 -3 c-3 -5 -12 -10 -18 -10 -7 0 -6 4 3 10 19 12 23 12 15 0z m-665
-55 c10 -13 9 -15 -10 -15 -17 0 -21 -4 -17 -20 4 -15 -1 -22 -19 -26 -29 -7
-29 -11 -4 -49 14 -21 16 -33 8 -42 -14 -18 -38 -16 -38 2 0 9 -12 18 -29 21
-35 7 -45 27 -29 57 15 30 27 37 66 37 24 0 32 4 32 18 0 33 20 42 40 17z
m849 -24 c-15 -5 -22 6 -14 19 6 9 10 9 16 -1 5 -8 4 -15 -2 -18z m730 -22
l11 -31 -25 24 c-16 16 -20 25 -12 30 7 4 13 8 14 8 0 0 6 -14 12 -31z m3788
-19 c39 -35 37 -36 -12 -13 -19 9 -35 23 -35 30 0 19 9 16 47 -17z m-3844 -15
c20 -42 24 -84 4 -45 -27 53 -36 80 -29 80 5 0 16 -16 25 -35z m-555 -17 c17
-17 15 -33 -3 -18 -8 6 -19 9 -25 5 -11 -7 -14 8 -3 18 9 10 17 9 31 -5z
m4512 -4 c0 -9 9 -18 19 -21 11 -3 21 -13 24 -24 4 -16 -2 -14 -39 12 -42 29
-50 49 -18 49 8 0 14 -7 14 -16z m-112 -17 l23 -13 -25 -23 c-29 -28 -46 -21
-46 20 0 32 12 36 48 16z m-4155 -14 c-20 -7 -15 -29 9 -45 21 -14 22 -16 5
-33 -17 -17 -19 -16 -38 1 -16 14 -24 16 -38 7 -19 -12 -31 -8 -31 9 0 5 11
14 25 20 14 6 24 17 21 24 -7 17 3 24 33 23 14 0 20 -3 14 -6z m4395 -27 c-9
-17 -17 -23 -27 -17 -11 7 -9 13 9 31 27 27 36 20 18 -14z m-178 14 c19 -12
13 -16 -35 -25 l-40 -7 19 21 c21 23 33 26 56 11z m-5649 -105 c10 -4 19 -11
19 -16 0 -5 11 -9 24 -9 14 0 28 -4 31 -10 11 -17 35 -11 35 9 0 10 7 22 16
25 18 7 37 -2 29 -14 -8 -14 23 -32 45 -25 18 6 20 2 20 -39 l0 -46 40 0 c22
0 40 -4 40 -10 0 -18 27 -10 44 13 9 12 15 16 13 8 -3 -17 73 -37 83 -21 9 15
70 25 70 11 0 -6 9 -11 19 -11 11 0 22 -4 26 -9 3 -6 13 -10 23 -9 9 0 46 -2
82 -5 55 -4 68 -2 86 14 12 12 37 20 60 21 21 1 50 7 64 15 14 7 32 13 40 13
8 1 26 14 40 30 27 33 40 38 40 15 0 -8 6 -15 14 -15 8 0 21 -8 28 -18 10 -14
27 -19 71 -21 31 -1 57 2 57 7 0 8 63 7 87 -2 7 -3 13 0 14 7 0 7 9 -7 19 -30
20 -45 74 -79 108 -69 12 4 25 -1 37 -14 18 -20 18 -21 -2 -35 -11 -8 -24 -26
-27 -40 -8 -32 -20 -32 -34 0 -11 25 -48 36 -39 13 2 -7 -3 -21 -12 -31 -15
-17 -14 -20 4 -33 16 -12 17 -14 2 -14 -23 0 -22 -26 2 -42 17 -12 17 -17 6
-43 l-13 -30 -1 27 c-1 15 -5 29 -9 32 -17 10 -72 16 -72 7 0 -5 -15 -6 -32
-2 -57 11 -85 3 -96 -29 -6 -16 -20 -33 -31 -40 -24 -12 -28 -35 -7 -43 9 -4
12 -14 9 -26 -3 -11 -11 -17 -18 -15 -21 8 -30 -18 -12 -31 39 -28 30 -89 -13
-90 -28 0 -21 -32 16 -69 20 -20 40 -36 44 -36 14 0 19 -28 7 -34 -8 -3 -7 -9
6 -19 9 -8 17 -19 17 -26 0 -6 7 -11 16 -11 9 0 25 -11 36 -25 11 -14 23 -23
28 -20 5 3 11 1 15 -5 3 -5 15 -10 26 -10 11 0 19 -7 19 -16 0 -12 -6 -15 -25
-10 -14 4 -25 2 -25 -4 0 -5 -6 -10 -13 -10 -8 0 -22 -9 -33 -21 -16 -17 -16
-22 -4 -29 13 -8 13 -10 -1 -10 -14 0 -34 -48 -24 -58 9 -9 50 -10 67 -1 17 9
18 8 6 -10 -7 -12 -18 -21 -24 -21 -16 0 -26 -28 -19 -51 9 -29 -18 -14 -39
21 -22 38 -51 41 -42 5 7 -27 -22 -65 -49 -65 -22 0 -18 -18 5 -25 11 -3 20
-14 20 -24 0 -22 -24 -56 -42 -57 -7 0 -23 -2 -35 -2 -13 -1 -23 -7 -23 -13 0
-6 -7 -17 -16 -26 -8 -9 -13 -22 -10 -29 4 -10 -3 -14 -19 -14 -22 0 -25 -4
-23 -32 2 -41 15 -68 32 -68 8 0 16 -8 19 -19 3 -12 12 -18 28 -17 13 1 33 -2
44 -8 11 -6 31 -11 45 -11 23 0 25 -3 22 -40 -2 -22 -9 -62 -17 -90 -7 -27
-21 -94 -31 -147 -14 -78 -20 -95 -31 -87 -9 8 -10 16 -3 29 14 26 15 26 -35
22 -35 -3 -46 0 -51 13 -5 11 -1 21 9 27 10 5 17 16 17 24 0 25 -31 64 -51 64
-13 0 -19 7 -19 21 0 12 -4 17 -11 13 -7 -4 -9 2 -7 17 2 17 -3 25 -16 27 -16
3 -18 0 -12 -22 5 -19 3 -26 -9 -26 -18 0 -20 -32 -3 -63 10 -20 10 -21 -5 -8
-10 7 -17 9 -17 4 0 -6 -13 -9 -30 -7 -16 2 -30 -1 -30 -6 0 -6 -5 -9 -11 -8
-7 2 -16 -11 -21 -29 -5 -20 -13 -30 -21 -27 -8 3 -21 -10 -33 -31 l-19 -36
-5 31 c-6 36 -24 45 -28 13 -3 -20 -6 -22 -25 -12 -16 9 -22 9 -25 1 -3 -9 -9
-9 -23 -2 -18 10 -23 6 -20 -13 0 -4 -4 -6 -10 -5 -6 2 -13 -9 -15 -23 -3 -17
4 -33 21 -49 31 -29 31 -34 -2 -49 -18 -8 -29 -9 -37 -1 -13 13 -46 13 -46 0
0 -5 10 -18 22 -30 17 -16 18 -20 6 -20 -20 0 -33 -31 -17 -41 6 -4 8 -12 5
-18 -5 -7 4 -16 23 -22 35 -12 36 -27 3 -50 -12 -8 -19 -19 -15 -22 13 -14
-31 -43 -59 -39 -21 3 -28 0 -28 -13 0 -25 19 -55 35 -55 8 0 20 -9 28 -21 12
-16 22 -19 53 -15 22 3 31 3 22 0 -10 -3 -15 -11 -11 -20 3 -9 -1 -14 -13 -14
-22 0 -7 -16 21 -23 13 -3 9 -5 -12 -6 -24 -1 -31 -5 -27 -16 4 -8 2 -15 -4
-15 -6 0 -8 -9 -5 -19 7 -27 46 -34 97 -17 44 15 86 12 86 -6 0 -6 14 -8 34
-4 31 6 34 5 32 -18 -1 -20 -4 -22 -15 -13 -11 9 -15 9 -18 0 -3 -7 -14 -13
-24 -13 -12 0 -17 -4 -13 -11 3 -6 16 -8 28 -5 15 3 27 -1 35 -13 14 -19 41
-17 118 7 31 10 32 10 38 -26 3 -22 -1 -62 -10 -97 -9 -33 -25 -114 -36 -180
-11 -66 -31 -156 -44 -200 -12 -44 -26 -96 -29 -115 -3 -19 -12 -47 -20 -62
-8 -15 -10 -30 -5 -35 8 -8 -19 -131 -55 -253 -8 -25 -22 -79 -31 -120 -10
-41 -24 -96 -32 -123 l-14 -48 -42 47 c-139 157 -316 407 -426 601 -395 699
-541 1531 -410 2333 45 274 133 577 241 830 l53 125 3 -47 c2 -36 8 -48 23
-53z m5664 44 c4 -6 13 -8 21 -5 9 3 31 -11 55 -35 55 -55 107 -76 139 -57 9
6 29 8 43 4 21 -5 27 -12 27 -35 0 -25 5 -30 34 -35 18 -4 40 -4 48 -1 10 4
17 -1 21 -16 4 -16 11 -20 26 -16 15 4 21 0 21 -12 0 -9 5 -22 10 -27 7 -7 4
-16 -10 -29 -11 -10 -20 -29 -20 -42 0 -20 -3 -23 -27 -17 -23 6 -25 5 -20
-15 10 -38 -29 -54 -120 -47 -43 3 -81 5 -86 6 -4 0 -1 14 8 30 12 23 22 30
45 30 35 0 44 12 35 47 -4 19 -11 24 -25 20 -11 -3 -20 -1 -20 4 0 5 -19 9
-43 9 -44 0 -44 0 -54 46 l-10 45 31 -6 c17 -4 58 -15 90 -26 55 -19 101 -19
80 0 -12 11 -92 35 -179 55 -60 13 -169 47 -227 71 -10 4 -18 18 -18 30 0 19
6 25 33 28 63 8 86 7 92 -4z m-5361 -8 c3 -5 -3 -11 -14 -14 -20 -5 -26 3 -13
16 9 10 21 9 27 -2z m436 -25 c0 -2 -7 -7 -16 -10 -8 -3 -12 -2 -9 4 6 10 25
14 25 6z m5120 -13 c0 -5 -13 -8 -29 -8 -16 0 -33 3 -37 8 -4 4 9 7 29 7 21 0
37 -3 37 -7z m-5170 -13 c0 -5 -2 -10 -4 -10 -3 0 -8 5 -11 10 -3 6 -1 10 4
10 6 0 11 -4 11 -10z m5237 -6 c-3 -3 -12 -4 -19 -1 -8 3 -5 6 6 6 11 1 17 -2
13 -5z m-252 -59 c26 -6 27 -8 12 -16 -22 -13 -50 -67 -43 -85 5 -14 -14 -13
-61 1 -7 2 -15 0 -19 -6 -4 -6 -11 -6 -20 2 -10 8 -13 29 -10 78 2 36 4 67 5
68 1 2 25 -6 54 -16 28 -11 65 -22 82 -26z m620 -12 c28 5 40 -16 20 -33 -17
-14 -55 -4 -55 16 0 8 -5 14 -11 14 -8 0 -7 6 2 17 13 15 14 15 17 -1 3 -13
11 -17 27 -13z m-4630 -29 c1 -20 -1 -22 -12 -11 -8 7 -11 21 -7 31 8 22 19
11 19 -20z m3661 5 c7 -12 -101 -127 -111 -118 -2 3 -7 19 -11 35 -8 44 35 94
81 94 19 0 37 -5 41 -11z m896 -34 c-18 -36 -55 -48 -65 -21 -8 21 14 44 48
49 17 2 31 5 32 6 2 0 -5 -15 -15 -34z m-667 -86 c11 -17 -1 -21 -15 -4 -8 9
-8 15 -2 15 6 0 14 -5 17 -11z m973 -8 c11 -6 11 -10 0 -18 -30 -24 -83 -45
-126 -49 -28 -3 -59 -14 -79 -30 -18 -14 -33 -20 -33 -15 0 15 -37 14 -42 -1
-3 -7 -19 -13 -36 -14 -17 -1 -38 -9 -47 -18 -10 -10 -33 -16 -59 -16 -24 0
-63 -6 -89 -14 -42 -13 -46 -12 -50 5 -3 11 -1 17 4 13 5 -3 17 0 26 5 10 6
14 11 10 11 -10 0 7 17 54 51 41 31 89 30 89 -2 0 -15 8 -18 46 -17 29 0 48 6
51 15 3 8 13 11 24 8 14 -5 19 -1 19 13 0 11 12 27 26 37 21 14 33 15 65 7 31
-8 47 -7 69 5 17 8 30 19 30 24 0 11 30 12 48 0z m-738 -11 c0 -5 -5 -10 -11
-10 -5 0 -7 5 -4 10 3 6 8 10 11 10 2 0 4 -4 4 -10z m853 -175 c180 -623 190
-1276 30 -1900 -76 -300 -197 -600 -351 -870 -59 -104 -198 -315 -252 -384
l-44 -55 -13 70 c-8 38 -54 170 -104 292 -73 183 -89 233 -89 277 0 29 -7 72
-16 96 -9 24 -17 69 -19 100 -2 31 -12 74 -23 95 -23 46 -37 120 -24 128 5 3
9 26 10 52 0 33 6 52 23 70 41 44 37 204 -6 269 l-25 35 29 -14 c34 -18 191
-13 311 10 82 16 120 44 120 90 0 13 5 24 12 24 7 0 6 6 -4 18 -18 20 -34 117
-18 107 6 -4 17 -19 25 -36 11 -20 23 -29 40 -29 30 0 30 -2 6 57 -62 160 -90
353 -50 353 30 0 47 -32 48 -92 1 -33 21 -38 21 -5 0 70 -46 167 -80 167 -5 0
-10 19 -10 43 0 23 -4 58 -9 77 -5 19 -12 57 -16 84 -3 27 -13 63 -22 80 l-16
31 23 -20 c13 -11 29 -35 37 -52 16 -39 43 -44 43 -9 0 36 -89 155 -111 149
-4 -1 -5 6 -2 17 3 10 -2 42 -10 72 -8 29 -18 77 -22 106 -5 39 -17 66 -46
105 l-39 52 30 25 c16 14 49 63 73 110 26 53 51 89 65 95 12 5 22 15 22 21 0
16 46 45 73 47 12 0 25 6 29 11 4 5 12 -2 19 -17 13 -30 21 -32 50 -17 10 6
19 7 19 2 0 -7 42 -32 55 -32 16 0 56 53 59 77 1 17 18 55 37 86 32 52 55 71
71 58 3 -3 22 -60 41 -126z m-1015 98 c29 -12 33 -17 18 -20 -20 -5 -66 15
-66 29 0 11 5 10 48 -9z m882 -3 c-24 -15 -37 -11 -16 5 11 8 22 12 25 9 3 -3
-1 -9 -9 -14z m-1053 -22 c8 21 18 13 20 -18 1 -17 -1 -30 -5 -30 -17 1 -42
29 -42 46 0 16 2 17 11 4 8 -11 12 -12 16 -2z m378 -40 c-4 -18 -11 -37 -15
-43 -4 -5 -11 -28 -15 -50 -3 -22 -13 -47 -21 -56 -14 -16 -10 -49 7 -49 16 0
37 45 44 93 7 46 25 66 25 27 0 -21 30 -29 31 -7 0 6 4 2 9 -10 9 -21 10 -21
40 -6 18 9 29 21 26 28 -4 12 94 35 211 48 42 5 53 -20 15 -34 -223 -85 -398
-176 -378 -196 4 -4 17 -1 29 7 12 7 38 21 57 31 166 80 232 110 236 106 2 -2
-27 -34 -66 -71 -38 -37 -70 -72 -70 -76 0 -5 -23 -20 -51 -34 -44 -23 -55
-25 -95 -16 -25 6 -56 7 -69 4 -41 -10 -154 15 -166 37 -12 23 -4 39 18 39 13
0 15 8 10 42 -3 23 -12 47 -20 53 -8 5 -17 20 -21 31 -5 18 -2 22 25 28 23 4
38 1 52 -11 15 -14 21 -15 24 -5 3 9 15 11 39 6 30 -6 34 -4 34 16 0 12 -5 30
-10 41 -6 11 -7 19 -2 19 6 0 12 9 15 20 3 14 14 20 32 20 25 0 26 -2 20 -32z
m630 -18 c-3 -5 -10 -10 -16 -10 -5 0 -9 5 -9 10 0 6 7 10 16 10 8 0 12 -4 9
-10z m-1026 -31 c-22 -13 -31 -11 -17 5 7 8 17 12 22 9 4 -3 2 -9 -5 -14z
m-79 -89 c0 -5 -2 -10 -4 -10 -3 0 -8 5 -11 10 -3 6 -1 10 4 10 6 0 11 -4 11
-10z m167 -16 c-3 -3 -12 -4 -19 -1 -8 3 -5 6 6 6 11 1 17 -2 13 -5z m-7 -30
c0 -2 -9 -4 -21 -4 -11 0 -18 4 -14 10 5 8 35 3 35 -6z m524 -83 c-8 -16 -22
-35 -31 -42 -15 -13 -15 -12 -3 11 12 24 40 60 46 60 1 0 -4 -13 -12 -29z
m-479 -11 c3 -5 1 -10 -4 -10 -6 0 -11 5 -11 10 0 6 2 10 4 10 3 0 8 -4 11
-10z m403 -60 c-2 -6 -8 -6 -18 0 -13 9 -13 11 0 20 15 10 25 0 18 -20z
m-4638 -124 c0 -2 -7 -7 -16 -10 -8 -3 -12 -2 -9 4 6 10 25 14 25 6z m-200
-542 c0 -13 -4 -24 -9 -24 -5 0 -9 13 -9 30 1 35 18 30 18 -6z m-10 -54 c0 -5
-5 -10 -11 -10 -5 0 -7 5 -4 10 3 6 8 10 11 10 2 0 4 -4 4 -10z m5080 -431 c6
-10 8 -19 5 -19 -10 0 -35 68 -34 92 1 15 4 9 10 -15 5 -21 14 -47 19 -58z
m-4280 41 c0 -5 -4 -10 -9 -10 -6 0 -13 5 -16 10 -3 6 1 10 9 10 9 0 16 -4 16
-10z m130 -16 c0 -16 -2 -16 -24 -8 -13 5 -14 9 -5 20 13 16 29 9 29 -12z
m163 0 c11 -11 -18 -44 -39 -44 -12 0 -27 -7 -34 -15 -8 -9 -21 -13 -36 -9
-15 4 -24 2 -24 -6 0 -6 -4 -8 -10 -5 -30 19 67 76 104 62 10 -4 16 -1 16 8 0
15 12 20 23 9z m-307 -49 c9 -14 21 -22 27 -18 6 3 7 1 3 -5 -4 -7 -12 -12
-19 -12 -6 0 -23 -12 -38 -26 -24 -23 -28 -24 -43 -9 -20 20 -21 35 -2 35 8 0
17 14 21 30 8 37 29 39 51 5z m344 11 c0 -8 -7 -17 -16 -20 -15 -6 -14 -9 5
-25 18 -16 19 -20 6 -25 -9 -3 -24 3 -35 14 -20 20 -20 20 2 45 24 28 38 32
38 11z m40 -98 c0 -5 -4 -8 -10 -8 -5 0 -10 10 -10 23 0 18 2 19 10 7 5 -8 10
-18 10 -22z m-1052 -2 c-7 -8 -15 -12 -17 -11 -5 6 10 25 20 25 5 0 4 -6 -3
-14z m922 3 c0 -6 14 -9 33 -7 37 3 72 -24 62 -50 -5 -14 -7 -14 -22 0 -12 12
-22 14 -40 7 -18 -7 -28 -4 -43 11 -11 11 -15 22 -9 25 5 4 7 11 4 16 -4 5 -1
9 4 9 6 0 11 -5 11 -11z m-1630 -55 c0 -2 -9 -4 -21 -4 -11 0 -18 4 -14 10 5
8 35 3 35 -6z m1744 -90 c4 -10 1 -14 -6 -12 -15 5 -23 28 -10 28 5 0 13 -7
16 -16z m317 -52 c-7 -2 -18 1 -23 6 -8 8 -4 9 13 5 13 -4 18 -8 10 -11z
m-388 -63 c4 -16 3 -18 -9 -8 -7 6 -11 15 -8 20 8 13 11 11 17 -12z m231 -10
c9 14 36 2 36 -15 0 -8 -3 -13 -7 -12 -5 1 -19 -2 -32 -6 -27 -9 -44 4 -35 28
5 12 10 14 19 6 9 -7 15 -8 19 -1z m-1034 -9 c0 -5 -5 -10 -11 -10 -5 0 -7 5
-4 10 3 6 8 10 11 10 2 0 4 -4 4 -10z m980 1 c0 -5 -10 -11 -22 -15 -36 -9
-41 -7 -28 9 13 16 50 21 50 6z m-812 -26 c-3 -3 -9 2 -12 12 -6 14 -5 15 5 6
7 -7 10 -15 7 -18z m-124 -30 c-4 -8 -10 -15 -16 -15 -5 0 -7 -4 -3 -10 3 -5
12 -7 19 -4 7 3 19 -3 26 -13 10 -12 10 -14 1 -7 -20 18 -71 -5 -71 -32 0 -17
-5 -21 -20 -17 -23 6 -29 -24 -6 -33 7 -3 12 -16 10 -29 -3 -31 5 -36 56 -37
44 0 94 -27 53 -28 -13 0 -23 -4 -23 -9 0 -5 -9 -7 -19 -4 -13 3 -23 -2 -30
-15 -7 -13 -17 -18 -30 -15 -17 4 -19 0 -15 -29 2 -18 4 -41 5 -51 0 -13 7
-17 23 -15 13 1 30 -3 39 -10 13 -11 19 -9 36 9 18 19 21 20 21 6 0 -23 16
-21 52 4 24 17 32 19 41 9 9 -10 8 -12 -5 -7 -12 4 -18 1 -18 -9 0 -8 -4 -12
-10 -9 -5 3 -10 1 -10 -5 0 -6 -4 -9 -9 -6 -11 7 -24 -25 -14 -35 8 -8 30 -12
49 -10 7 0 15 13 18 27 5 18 12 24 22 20 9 -3 20 -6 25 -6 23 0 5 -28 -23 -36
-30 -9 -33 -14 -34 -49 -1 -22 -3 -47 -5 -55 -3 -11 3 -14 19 -12 33 5 30 -34
-3 -42 -27 -7 -34 -26 -9 -26 8 0 12 -5 9 -10 -3 -6 -17 -7 -31 -4 -19 5 -24
2 -24 -13 0 -19 -36 -43 -65 -43 -15 0 -41 -39 -36 -55 1 -5 -3 -4 -10 3 -19
18 -37 15 -44 -8 -4 -11 -11 -17 -17 -14 -7 5 -9 1 -5 -9 3 -10 2 -17 -3 -17
-6 0 -10 -6 -10 -14 0 -7 -7 -19 -15 -26 -23 -19 -19 -43 5 -35 15 5 18 3 14
-9 -5 -12 -2 -15 10 -10 14 5 15 2 6 -22 -6 -15 -18 -33 -28 -40 -16 -12 -16
-13 1 -19 9 -4 17 -17 17 -29 0 -25 16 -48 45 -66 15 -8 15 -10 3 -6 -14 4
-18 0 -18 -18 0 -13 7 -27 16 -30 12 -5 6 -15 -27 -51 -44 -47 -63 -51 -99
-20 -8 7 -34 13 -58 13 -48 -1 -67 -22 -59 -64 2 -14 -1 -25 -11 -29 -9 -3
-12 -13 -9 -25 3 -11 1 -17 -4 -14 -5 3 -18 2 -29 -1 -16 -5 -19 -13 -15 -40
4 -31 0 -35 -63 -78 -37 -25 -83 -57 -102 -71 -57 -42 -104 -14 -65 38 9 12
15 43 15 75 1 31 5 74 9 96 28 133 42 203 61 310 66 355 64 349 109 395 38 40
44 42 68 31 35 -16 41 -7 9 14 -14 10 -35 15 -46 12 -17 -4 -18 -1 -13 26 4
21 3 28 -5 23 -7 -4 -12 -16 -12 -26 0 -10 -5 -22 -10 -25 -7 -4 -9 2 -6 17 2
12 10 58 17 101 8 49 17 81 26 84 8 3 12 12 8 21 -6 16 14 83 29 93 4 4 17 4
27 2 18 -5 23 5 22 45 -1 9 7 11 28 7 19 -4 29 -3 29 5 0 6 10 10 22 8 18 -2
22 2 22 22 0 19 -5 26 -24 28 -14 2 -29 8 -35 14 -7 6 -1 7 17 3 19 -5 29 -2
36 11 6 10 23 19 39 20 15 1 33 3 39 3 6 1 21 10 34 21 28 24 72 28 64 5z
m126 -13 c-13 -5 -13 -32 1 -32 6 0 9 -12 7 -27 -2 -23 -7 -27 -25 -25 -15 2
-23 -2 -23 -12 0 -19 -43 -31 -67 -21 -17 8 -17 8 0 12 10 3 16 11 13 18 -6
16 19 53 29 43 11 -11 35 18 35 42 0 12 5 18 10 15 6 -3 10 0 10 7 0 9 3 9 10
-2 6 -10 6 -16 0 -18z m630 -13 c0 -4 -7 -6 -15 -3 -8 4 -15 10 -15 15 0 4 7
6 15 3 8 -4 15 -10 15 -15z m-1295 -9 c3 -5 1 -10 -4 -10 -6 0 -11 5 -11 10 0
6 2 10 4 10 3 0 8 -4 11 -10z m1275 -41 c0 -9 -9 -19 -21 -22 -20 -5 -20 -5
-4 13 11 12 13 20 6 25 -6 3 -11 14 -11 23 0 13 2 13 15 -4 8 -10 15 -26 15
-35z m-560 32 c0 -6 -4 -13 -10 -16 -5 -3 -10 1 -10 9 0 9 5 16 10 16 6 0 10
-4 10 -9z m645 -2 c-4 -5 0 -18 7 -27 27 -31 29 -40 8 -35 -11 3 -23 9 -26 14
-3 5 -14 9 -26 9 -14 0 -18 -5 -14 -15 3 -8 1 -15 -3 -15 -33 0 -6 68 29 73
14 2 26 5 28 6 2 0 0 -4 -3 -10z m282 -17 c9 -6 8 -11 -5 -19 -15 -9 -18 -7
-19 8 -2 20 5 23 24 11z m-77 -9 c0 -5 -7 -16 -14 -26 -10 -13 -15 -14 -18 -5
-3 7 0 18 6 25 12 14 26 17 26 6z m96 -79 c-5 -13 -10 -14 -18 -6 -6 6 -8 18
-4 28 5 13 10 14 18 6 6 -6 8 -18 4 -28z m-1422 -23 c-9 -10 -26 18 -18 30 5
9 9 8 14 -7 4 -10 6 -21 4 -23z m516 -31 c0 -5 -7 -7 -15 -4 -8 4 -12 10 -9
15 6 11 24 2 24 -11z m381 -20 c19 0 29 -5 29 -15 0 -8 -6 -15 -14 -15 -9 0
-12 -7 -9 -19 3 -10 0 -22 -6 -25 -7 -4 -11 1 -11 13 0 34 -19 34 -60 1 -22
-17 -40 -26 -40 -20 0 7 -7 10 -17 6 -16 -5 -15 -4 1 9 10 8 23 12 27 9 5 -3
9 0 9 5 0 6 5 10 11 9 6 -2 14 3 17 11 3 8 0 11 -7 7 -16 -10 -31 2 -25 19 4
8 10 12 15 9 5 -3 17 -1 26 5 11 6 19 6 21 0 2 -5 17 -9 33 -9z m-476 -20 c3
-5 1 -10 -4 -10 -6 0 -11 5 -11 10 0 6 2 10 4 10 3 0 8 -4 11 -10z m325 -19
c0 -6 -4 -13 -10 -16 -5 -3 -10 1 -10 9 0 9 5 16 10 16 6 0 10 -4 10 -9z m375
-21 c-4 -6 -10 -8 -15 -5 -4 3 -10 -1 -13 -7 -2 -7 -8 -10 -12 -6 -11 11 4 28
26 28 11 0 17 -5 14 -10z m-680 -30 c-3 -5 -13 -10 -21 -10 -8 0 -12 5 -9 10
3 6 13 10 21 10 8 0 12 -4 9 -10z m460 -19 c-3 -6 -14 -11 -23 -11 -13 0 -13
2 4 14 21 15 30 14 19 -3z m-355 -19 c0 -15 -2 -15 -10 -2 -13 20 -13 33 0 25
6 -3 10 -14 10 -23z m170 18 c0 -5 -2 -10 -4 -10 -3 0 -8 5 -11 10 -3 6 -1 10
4 10 6 0 11 -4 11 -10z m150 -51 c-10 -17 -30 -27 -30 -13 0 15 22 44 31 39 5
-4 5 -13 -1 -26z m148 -11 c-24 -24 -34 -18 -17 10 7 11 18 18 25 15 9 -3 7
-10 -8 -25z m-464 -44 c8 -21 3 -26 -29 -29 -26 -3 -29 2 -19 29 8 21 40 21
48 0z m226 1 c0 -8 -4 -15 -10 -15 -5 0 -10 7 -10 15 0 8 5 15 10 15 6 0 10
-7 10 -15z m-140 -34 c0 -5 -6 -12 -12 -15 -9 -3 -7 -9 6 -20 18 -15 18 -16 2
-16 -13 0 -16 -5 -11 -20 4 -12 -8 -46 -33 -95 -31 -61 -41 -72 -47 -58 -5 10
-7 22 -6 26 1 5 -8 16 -19 25 -21 17 -20 17 11 18 39 2 60 27 52 64 -3 15 0
37 6 48 9 16 7 21 -7 28 -14 6 -11 8 13 14 43 11 45 11 45 1z m160 -22 c0 -5
11 -7 25 -3 33 8 32 -5 -8 -86 -28 -56 -36 -66 -65 -71 -26 -5 -32 -4 -28 7 3
8 1 14 -4 14 -6 0 -10 10 -10 23 0 13 -5 28 -11 34 -12 12 42 63 67 63 8 0 14
5 14 11 0 6 -7 9 -15 5 -8 -3 -15 -1 -15 3 0 12 21 19 38 13 6 -2 12 -8 12
-13z m-125 -79 c3 -5 1 -10 -4 -10 -6 0 -11 5 -11 10 0 6 2 10 4 10 3 0 8 -4
11 -10z m-5 -30 c0 -5 -4 -10 -10 -10 -5 0 -10 5 -10 10 0 6 5 10 10 10 6 0
10 -4 10 -10z m35 -140 c-3 -5 -11 -10 -16 -10 -6 0 -7 5 -4 10 3 6 11 10 16
10 6 0 7 -4 4 -10z m-282 -63 c6 3 7 1 3 -6 -13 -21 21 -43 55 -36 l31 7 -7
-59 c-10 -85 -14 -95 -35 -88 -10 3 -21 1 -25 -5 -5 -8 -11 -8 -21 1 -11 9
-14 8 -14 -5 0 -22 -23 -20 -38 4 -11 17 -15 18 -35 8 -12 -7 -24 -16 -27 -20
-4 -4 -16 0 -29 9 -20 14 -23 22 -19 65 4 42 12 56 48 93 38 39 45 42 73 34
16 -5 34 -6 40 -2z m152 -87 c3 -5 -1 -10 -10 -10 -9 0 -13 5 -10 10 3 6 8 10
10 10 2 0 7 -4 10 -10z m95 -21 c0 -6 -4 -7 -10 -4 -5 3 -10 11 -10 16 0 6 5
7 10 4 6 -3 10 -11 10 -16z m1462 -323 c7 5 9 2 5 -8 -7 -19 11 -38 35 -38 10
0 18 -6 18 -14 0 -19 23 -36 54 -38 29 -3 31 -10 12 -53 l-13 -30 -8 28 c-8
29 -15 33 -31 17 -8 -8 -15 -6 -24 5 -7 8 -23 15 -35 15 -18 0 -24 7 -29 35
-4 20 -4 40 -1 45 3 6 2 10 -3 10 -5 0 -9 12 -9 27 0 21 1 23 9 9 5 -9 14 -13
20 -10z m-59 -83 c-9 -21 -18 -47 -20 -57 -4 -23 -11 -32 -18 -24 -6 5 -9 92
-6 153 l1 30 30 -32 30 -31 -17 -39z m317 13 c0 -3 -4 -8 -10 -11 -5 -3 -10
-1 -10 4 0 6 5 11 10 11 6 0 10 -2 10 -4z m-1110 -60 c-16 -14 -70 -31 -70
-21 0 7 60 34 75 35 5 0 3 -6 -5 -14z m1043 -34 c-3 -10 -10 -22 -15 -28 -4
-6 -6 -19 -2 -28 3 -9 2 -16 -3 -16 -5 0 -10 16 -11 36 -2 20 -3 39 -4 43 0 3
0 15 1 25 1 18 2 18 20 2 12 -11 17 -25 14 -34z m-2213 28 c0 -5 -12 -10 -27
-10 -22 0 -25 2 -13 10 20 13 40 13 40 0z m2290 -10 c0 -5 -2 -10 -4 -10 -3 0
-8 5 -11 10 -3 6 -1 10 4 10 6 0 11 -4 11 -10z m-1197 -33 c3 -8 -1 -14 -9
-14 -8 0 -14 6 -14 14 0 7 4 13 9 13 5 0 11 -6 14 -13z m212 -37 c7 -11 -1
-14 -50 -25 l-30 -6 30 20 c35 23 42 24 50 11z m235 -30 c16 -10 14 -11 -40
-16 -35 -2 -35 -2 -10 11 30 17 31 17 50 5z m900 6 c0 -3 -4 -8 -10 -11 -5 -3
-10 -1 -10 4 0 6 5 11 10 11 6 0 10 -2 10 -4z m-90 -15 c23 -7 22 -8 -12 -12
-27 -4 -38 -1 -38 8 0 14 11 15 50 4z m-146 -26 c3 -8 1 -15 -4 -15 -6 0 -10
7 -10 15 0 8 2 15 4 15 2 0 6 -7 10 -15z"/>
<path d="M7080 9165 c-52 -52 -92 -97 -89 -99 3 -3 47 37 99 89 52 52 92 97
89 99 -3 3 -47 -37 -99 -89z"/>
<path d="M6704 8941 c-36 -22 -58 -75 -48 -115 3 -14 21 -39 38 -54 35 -30 83
-35 126 -12 26 14 52 65 48 96 -5 38 -22 31 -29 -11 -8 -46 -39 -75 -80 -75
-50 0 -44 24 20 85 34 32 61 62 61 67 0 11 -62 38 -87 38 -10 0 -32 -9 -49
-19z m44 -78 c-54 -55 -68 -55 -68 -2 0 25 31 62 60 71 8 3 25 0 38 -5 22 -10
22 -12 -30 -64z"/>
<path d="M6541 8779 c-57 -35 -65 -128 -15 -168 81 -63 195 -4 177 91 -7 36
-23 26 -23 -13 0 -39 -40 -79 -77 -79 -56 0 -55 13 7 75 33 33 60 65 60 72 0
16 -51 42 -79 40 -13 -1 -35 -9 -50 -18z m84 -15 c13 -6 7 -17 -36 -60 -29
-29 -56 -51 -61 -48 -4 3 -8 20 -8 39 0 52 55 88 105 69z"/>
<path d="M6433 8662 c-2 -11 -15 -23 -26 -26 -20 -5 -15 -12 48 -76 63 -63 95
-84 95 -62 0 4 -23 30 -51 57 -45 44 -50 54 -45 82 5 36 -12 57 -21 25z"/>
<path d="M6290 8616 c0 -8 10 -22 22 -30 17 -12 19 -18 9 -30 -17 -21 -4 -41
15 -25 12 10 23 4 62 -33 54 -52 68 -59 100 -47 27 10 19 33 -9 24 -13 -5 -33
7 -68 40 -43 41 -48 49 -38 65 14 24 3 37 -18 20 -13 -11 -19 -9 -38 9 -27 25
-37 27 -37 7z"/>
<path d="M6277 8513 c-4 -3 -2 -12 4 -19 8 -10 6 -13 -8 -12 -32 3 -72 -32
-84 -72 -10 -33 -9 -44 8 -77 11 -21 24 -36 28 -35 4 2 11 -1 14 -6 7 -12 24
-15 67 -13 40 1 84 41 84 77 0 22 2 25 15 14 21 -17 19 -73 -4 -98 -11 -14
-30 -22 -49 -22 -34 0 -52 -17 -28 -26 50 -19 126 42 126 101 0 33 -9 47 -77
116 -77 79 -84 85 -96 72z m64 -82 c36 -36 37 -73 4 -106 -33 -33 -70 -32
-106 4 -36 36 -37 73 -4 106 33 33 70 32 106 -4z"/>
<path d="M6077 8310 c-14 -11 -29 -29 -32 -40 -4 -11 -13 -20 -21 -20 -27 0
-14 -23 52 -87 76 -73 101 -77 33 -5 -52 54 -64 103 -32 127 31 24 57 17 112
-30 76 -65 86 -55 16 15 -65 65 -87 72 -128 40z"/>
<path d="M5955 8167 c-41 -13 -75 -46 -75 -72 0 -29 -10 -37 -27 -24 -7 6 -13
8 -13 3 0 -12 172 -184 184 -184 6 0 -5 15 -22 33 -33 34 -33 47 0 47 33 0 78
54 78 93 0 65 -69 123 -125 104z m79 -43 c31 -31 34 -78 8 -112 -37 -48 -121
-30 -142 32 -11 35 -5 59 24 92 20 24 81 17 110 -12z"/>
</g>
</svg>
