<?xml version="1.0" standalone="no"?>
<!DOCTYPE svg PUBLIC "-//W3C//DTD SVG 20010904//EN"
 "http://www.w3.org/TR/2001/REC-SVG-20010904/DTD/svg10.dtd">
<svg version="1.0" xmlns="http://www.w3.org/2000/svg"
 width="200px" height="200px" viewBox="0 0 500.000000 350.000000"
 preserveAspectRatio="xMidYMid meet">

<g transform="translate(0.000000,350.000000) scale(0.100000,-0.100000)"
fill="#000000" stroke="none">
<path d="M2027 3171 c-25 -17 -108 -51 -184 -76 -219 -74 -303 -134 -303 -215
l0 -40 -69 0 c-63 0 -77 -4 -155 -45 -63 -34 -92 -44 -111 -39 -14 3 -31 1
-39 -6 -12 -9 -18 -6 -31 14 -10 14 -25 26 -35 26 -28 0 -51 -11 -44 -21 3 -5
2 -9 -3 -8 -26 5 -72 -16 -82 -37 -19 -42 -12 -78 29 -156 49 -93 60 -165 37
-235 -9 -27 -20 -77 -26 -113 -17 -108 -34 -381 -27 -444 4 -38 1 -77 -8 -110
-8 -28 -20 -71 -26 -96 -6 -25 -20 -75 -30 -111 -15 -54 -17 -75 -8 -110 6
-24 15 -49 19 -54 4 -6 4 -17 -1 -25 -8 -12 -10 -10 -10 7 0 12 -4 25 -10 28
-5 3 -10 18 -11 33 -1 24 -2 23 -9 -8 -10 -40 2 -116 25 -164 34 -71 105 -113
132 -77 10 14 14 11 30 -17 10 -17 26 -35 36 -38 9 -3 17 -13 17 -23 0 -22 72
-52 121 -51 58 3 113 -12 131 -35 11 -14 37 -26 74 -34 51 -10 62 -9 99 9 23
11 49 20 58 20 9 0 17 4 17 10 0 5 18 19 39 29 39 20 83 20 89 1 2 -5 10 -10
17 -10 7 0 47 -33 89 -73 53 -50 76 -79 76 -96 0 -27 39 -100 54 -102 6 -1 21
0 33 0 13 2 24 -5 27 -16 3 -10 19 -26 35 -36 16 -9 31 -27 35 -40 8 -35 73
-61 130 -54 35 5 49 2 69 -13 14 -11 30 -20 36 -20 6 0 22 -13 36 -29 35 -39
93 -55 210 -58 134 -3 186 -12 208 -34 24 -25 91 -25 203 1 60 14 91 17 98 10
5 -5 23 -10 39 -10 39 0 310 60 322 71 5 5 17 9 26 9 33 0 231 70 308 108 111
56 238 143 300 205 l53 55 -4 112 c-3 92 -6 114 -21 125 -9 7 -25 34 -34 61
-10 29 -33 64 -58 88 -36 35 -55 44 -136 65 -202 51 -263 77 -381 164 -48 35
-68 56 -68 71 0 29 -17 49 -60 75 -38 23 -70 27 -87 10 -5 -5 -30 -9 -54 -7
-43 3 -44 3 -44 40 0 55 -79 134 -109 109 -27 -23 -128 39 -169 102 -10 16
-38 37 -61 47 -47 20 -89 68 -100 113 -5 19 -17 33 -39 42 -18 7 -48 35 -67
61 -47 64 -48 65 -54 94 -3 17 -19 34 -43 47 -48 27 -86 76 -71 91 17 17 1 44
-21 37 -15 -5 -22 2 -32 32 -7 21 -12 47 -10 58 2 11 -8 28 -24 41 -23 18 -25
25 -16 42 16 30 14 46 -11 77 -17 22 -21 39 -19 80 1 29 -2 56 -8 59 -5 4 -7
21 -5 39 4 23 -1 41 -19 68 -18 26 -23 44 -19 69 3 21 0 37 -9 44 -8 6 -19 20
-25 31 -7 12 -24 21 -43 23 -17 2 -31 9 -31 15 0 20 -40 90 -68 120 -33 35
-57 34 -115 -2z m-21 -193 c4 -7 3 -8 -4 -4 -8 4 -12 0 -12 -11 0 -15 -2 -16
-10 -3 -6 9 -5 17 3 22 15 10 15 10 23 -4z m-71 -18 c-9 -10 -15 -26 -12 -33
4 -11 -3 -13 -29 -11 -24 2 -34 -2 -34 -12 0 -12 -3 -12 -14 -2 -12 11 -11 15
7 25 15 7 26 8 34 2 8 -7 15 -3 24 13 11 21 28 37 38 38 2 0 -4 -9 -14 -20z
m20 -20 c-3 -5 -11 -10 -16 -10 -6 0 -7 5 -4 10 3 6 11 10 16 10 6 0 7 -4 4
-10z m100 -49 c3 -5 2 -12 -3 -15 -5 -3 -9 1 -9 9 0 17 3 19 12 6z m-86 -78
c-4 -25 3 -35 21 -30 11 3 18 1 14 -4 -3 -5 -11 -9 -18 -9 -18 0 -39 27 -31
40 7 12 16 13 14 3z m66 -22 c-6 -5 -25 10 -25 20 0 5 6 4 14 -3 8 -7 12 -15
11 -17z m-975 -130 c0 -32 -6 -24 -14 19 -4 25 -3 31 4 20 5 -8 10 -26 10 -39z
m587 22 c-9 -9 -19 -14 -23 -11 -10 10 6 28 24 28 15 0 15 -1 -1 -17z m-67
-50 c0 -3 -8 -15 -17 -26 -10 -11 -12 -17 -5 -13 6 4 12 2 12 -3 0 -16 -20
-13 -26 4 -4 8 -1 22 6 30 13 15 30 20 30 8z m140 -213 c-8 -5 -19 -10 -25
-10 -5 0 -3 5 5 10 8 5 20 10 25 10 6 0 3 -5 -5 -10z m70 0 c0 -5 -2 -10 -4
-10 -3 0 -8 5 -11 10 -3 6 -1 10 4 10 6 0 11 -4 11 -10z m-140 -70 c0 -5 -5
-10 -11 -10 -5 0 -7 5 -4 10 3 6 8 10 11 10 2 0 4 -4 4 -10z m-469 -119 c-7
-5 -10 -14 -7 -20 4 -6 1 -11 -7 -11 -8 0 -17 -7 -21 -15 -3 -8 -11 -15 -17
-15 -8 0 -9 4 0 13 6 8 7 18 3 22 -4 5 -2 5 4 2 7 -4 19 5 29 19 9 14 19 23
23 19 4 -3 0 -10 -7 -14z m644 -89 c-3 -3 -11 0 -18 7 -9 10 -8 11 6 5 10 -3
15 -9 12 -12z m25 -16 c0 -3 -4 -8 -10 -11 -5 -3 -10 -1 -10 4 0 6 5 11 10 11
6 0 10 -2 10 -4z m-100 -31 c-13 -15 -35 -11 -24 6 3 5 10 7 15 4 5 -4 9 -1 9
6 0 7 3 9 6 6 4 -4 1 -13 -6 -22z m80 -1 c0 -7 -27 -34 -34 -34 -4 0 -1 9 6
20 12 19 28 27 28 14z m-57 -24 c-3 -11 -14 -20 -25 -20 -10 0 -16 5 -13 10 4
6 10 8 15 5 4 -3 10 2 14 10 8 22 15 18 9 -5z m-57 -27 c-11 -11 -17 4 -9 23
7 18 8 18 11 1 2 -10 1 -21 -2 -24z m721 -515 c-3 -8 -6 -5 -6 6 -1 11 2 17 5
13 3 -3 4 -12 1 -19z m-1487 -273 c0 -8 -4 -15 -10 -15 -5 0 -7 7 -4 15 4 8 8
15 10 15 2 0 4 -7 4 -15z m230 -141 c0 -2 -13 2 -30 11 -16 9 -30 18 -30 21 0
2 14 -2 30 -11 17 -9 30 -18 30 -21z m96 -51 c-2 -3 -21 4 -42 13 -22 9 -43
16 -47 15 -5 -1 -6 3 -2 8 3 6 23 2 50 -11 25 -12 43 -23 41 -25z m34 -7 c0
-2 -7 -7 -16 -10 -8 -3 -12 -2 -9 4 6 10 25 14 25 6z m40 -16 c8 -5 11 -10 5
-10 -5 0 -17 5 -25 10 -8 5 -10 10 -5 10 6 0 17 -5 25 -10z m47 -16 c-3 -3
-12 -4 -19 -1 -8 3 -5 6 6 6 11 1 17 -2 13 -5z m-98 -20 c10 -9 -35 -3 -49 6
-11 8 -7 9 15 4 17 -4 32 -8 34 -10z m228 -10 c-3 -3 -12 -4 -19 -1 -8 3 -5 6
6 6 11 1 17 -2 13 -5z m1833 -129 c0 -2 -7 -5 -15 -9 -9 -3 -15 0 -15 9 0 9 6
12 15 9 8 -4 15 -7 15 -9z m-90 -10 c0 -8 -6 -15 -14 -15 -8 0 -17 -8 -19 -17
-3 -11 -5 -8 -6 9 -1 20 3 26 14 22 8 -4 15 -1 15 5 0 6 2 11 5 11 3 0 5 -7 5
-15z m120 5 c0 -5 -2 -10 -4 -10 -3 0 -8 5 -11 10 -3 6 -1 10 4 10 6 0 11 -4
11 -10z m-103 -32 c-3 -7 -5 -2 -5 12 0 14 2 19 5 13 2 -7 2 -19 0 -25z m73
12 c-8 -5 -19 -10 -25 -10 -5 0 -3 5 5 10 8 5 20 10 25 10 6 0 3 -5 -5 -10z
m75 -20 c-3 -5 0 -10 7 -10 10 0 9 -3 -2 -9 -20 -13 -34 -2 -19 15 13 16 23
19 14 4z m-148 -32 c-3 -8 -6 -5 -6 6 -1 11 2 17 5 13 3 -3 4 -12 1 -19z m113
-2 c0 -10 -30 0 -34 11 -4 11 -1 11 14 3 11 -6 20 -12 20 -14z m-203 -1 c0 -8
-4 -12 -9 -9 -4 3 -8 9 -8 15 0 5 4 9 8 9 5 0 9 -7 9 -15z m-106 -12 c8 -9 9
-14 2 -10 -6 4 -14 1 -16 -5 -3 -7 -6 -3 -6 10 -1 26 2 27 20 5z m166 -15 c-3
-7 -5 -2 -5 12 0 14 2 19 5 13 2 -7 2 -19 0 -25z m53 -12 c0 -3 -4 -8 -10 -11
-5 -3 -10 -1 -10 4 0 6 5 11 10 11 6 0 10 -2 10 -4z m-123 -12 c-3 -3 -12 -4
-19 -1 -8 3 -5 6 6 6 11 1 17 -2 13 -5z m60 -16 c-3 -8 -6 -5 -6 6 -1 11 2 17
5 13 3 -3 4 -12 1 -19z m80 -14 c-3 -3 -12 -4 -19 -1 -8 3 -5 6 6 6 11 1 17
-2 13 -5z m-704 -188 c67 -14 133 -27 147 -30 14 -3 -2 -3 -35 0 -68 5 -232
41 -255 56 -12 8 -12 9 3 4 9 -3 72 -17 140 -30z m250 -43 c-7 -2 -21 -2 -30
0 -10 3 -4 5 12 5 17 0 24 -2 18 -5z"/>
</g>
</svg>
